Coordinates
version=1
nRows=28
nColumns=34
inDegrees=no

Units are S.I. units (second, meters, Newtons, ...)
If the header above contains a line with 'inDegrees', this indicates whether rotational values are in degrees (yes) or radians (no).

endheader
time	pelvis_tilt	pelvis_list	pelvis_rotation	pelvis_tx	pelvis_ty	pelvis_tz	hip_flexion_r	hip_adduction_r	hip_rotation_r	knee_angle_r	ankle_angle_r	subtalar_angle_r	mtp_angle_r	hip_flexion_l	hip_adduction_l	hip_rotation_l	knee_angle_l	ankle_angle_l	subtalar_angle_l	mtp_angle_l	lumbar_extension	lumbar_bending	lumbar_rotation	arm_flex_r	arm_add_r	arm_rot_r	elbow_flex_r	pro_sup_r	arm_flex_l	arm_add_l	arm_rot_l	elbow_flex_l	pro_sup_l
6.51	-0.675102	-0.0292441	-0.00523465	-0.342173	0.612721	-0.673889	1.89362	-0.374857	-0.00511164	1.66599	0.586826	0.188544	-0.0964328	1.93437	-0.389837	0.0583483	1.65563	0.520962	0.169625	-0.0963224	-0.468443	0.00872108	0.049094	2.17113	-0.616331	0.736747	1.86648	1.4346	2.18495	-0.553312	0.758133	1.76931	1.69918
6.52	-0.677852	-0.0283566	-0.00219631	-0.341254	0.616516	-0.674347	1.88752	-0.375646	-0.00468796	1.65514	0.583811	0.184963	-0.0964328	1.92552	-0.382056	0.0548309	1.644	0.516832	0.161156	-0.0963222	-0.457185	0.0104082	0.0470962	2.16161	-0.621082	0.735221	1.87141	1.43219	2.1738	-0.556748	0.754795	1.77267	1.69934
6.53	-0.680673	-0.0276286	0.000796081	-0.340329	0.6205	-0.674795	1.88086	-0.376275	-0.00462366	1.64356	0.580542	0.181222	-0.0964328	1.91641	-0.374151	0.0515011	1.63168	0.512339	0.152591	-0.0963219	-0.445787	0.0121357	0.0452386	2.15117	-0.626062	0.733288	1.87666	1.42985	2.16191	-0.5601	0.750994	1.77638	1.69948
6.54	-0.683286	-0.0269908	0.00365992	-0.339381	0.624692	-0.675218	1.87335	-0.376666	-0.00492953	1.63126	0.577048	0.17738	-0.0964328	1.9067	-0.366387	0.0482537	1.61871	0.507604	0.14416	-0.0963217	-0.434617	0.0137608	0.0435322	2.13972	-0.631238	0.730823	1.88221	1.42782	2.1494	-0.56337	0.746765	1.78037	1.69957
6.55	-0.685424	-0.0263735	0.00631218	-0.338396	0.629111	-0.675601	1.86473	-0.376731	-0.00559732	1.61826	0.573353	0.173462	-0.0964328	1.89608	-0.358989	0.0450031	1.60509	0.502745	0.136032	-0.0963215	-0.424019	0.0151462	0.0419922	2.12721	-0.636564	0.72773	1.88802	1.42628	2.13637	-0.566548	0.742139	1.78453	1.69963
6.56	-0.686885	-0.0257143	0.00868607	-0.337364	0.633766	-0.675934	1.85482	-0.376393	-0.00659918	1.6046	0.569465	0.16947	-0.0964327	1.88431	-0.352119	0.0416828	1.59084	0.497852	0.128309	-0.0963213	-0.414252	0.0161822	0.0406302	2.11359	-0.64199	0.723954	1.89404	1.42532	2.12292	-0.569615	0.737128	1.78877	1.69969
6.57	-0.687575	-0.0249659	0.0107466	-0.336278	0.638657	-0.67621	1.84356	-0.375617	-0.00789176	1.59028	0.565382	0.1654	-0.0964327	1.87129	-0.345852	0.0382426	1.57599	0.492971	0.121024	-0.0963211	-0.405429	0.0168065	0.0394439	2.09881	-0.647462	0.719494	1.90022	1.42489	2.10905	-0.572553	0.73173	1.79297	1.69977
6.58	-0.687519	-0.0241019	0.0124963	-0.33514	0.643771	-0.676431	1.83103	-0.374416	-0.00942413	1.57534	0.561088	0.161252	-0.0964327	1.85706	-0.340187	0.0346479	1.56055	0.488094	0.114157	-0.0963209	-0.3975	0.0170128	0.0384129	2.08286	-0.652926	0.714387	1.90648	1.42488	2.09476	-0.575348	0.725934	1.79707	1.69987
6.59	-0.68684	-0.0231172	0.0139679	-0.333954	0.649088	-0.676605	1.81741	-0.372845	-0.0111467	1.5598	0.556562	0.157028	-0.0964327	1.84177	-0.335057	0.0308813	1.54453	0.483174	0.107653	-0.0963207	-0.390284	0.0168442	0.0375055	2.06567	-0.658333	0.708686	1.91279	1.42516	2.07994	-0.577995	0.719722	1.80098	1.69997
6.6	-0.685721	-0.0220263	0.0152077	-0.332727	0.654579	-0.676742	1.80295	-0.370979	-0.0130204	1.54367	0.551789	0.15273	-0.0964327	1.82568	-0.330363	0.026945	1.52797	0.478147	0.101444	-0.0963205	-0.383513	0.0163759	0.0366927	2.04719	-0.663647	0.702421	1.91908	1.42565	2.06446	-0.580492	0.713075	1.80471	1.70004
6.61	-0.68436	-0.0208601	0.0162561	-0.331465	0.660218	-0.676852	1.7879	-0.368885	-0.0150254	1.52696	0.546758	0.148363	-0.0964327	1.80903	-0.326007	0.0228629	1.51087	0.472951	0.095464	-0.0963203	-0.3769	0.0156952	0.0359638	2.0273	-0.668844	0.695574	1.92533	1.42635	2.04817	-0.582843	0.705969	1.80824	1.70007
6.62	-0.682932	-0.0196642	0.0171329	-0.330172	0.665978	-0.676942	1.77245	-0.366605	-0.0171682	1.50968	0.541465	0.143923	-0.0964326	1.79206	-0.321917	0.018679	1.49327	0.467542	0.0896616	-0.0963201	-0.370179	0.0148878	0.0353384	2.00585	-0.673916	0.688068	1.93153	1.42732	2.0309	-0.585054	0.698382	1.81165	1.70006
6.63	-0.681565	-0.0184972	0.0178295	-0.328851	0.671839	-0.677017	1.75672	-0.364143	-0.0194842	1.49182	0.535913	0.139401	-0.0964326	1.77496	-0.318074	0.0144501	1.47518	0.461904	0.0840165	-0.0963199	-0.363154	0.0140305	0.0348692	1.98268	-0.678869	0.679777	1.93769	1.42864	2.01247	-0.587131	0.690292	1.81501	1.69997
6.64	-0.680324	-0.017426	0.018314	-0.327497	0.677789	-0.677073	1.74075	-0.361471	-0.0220325	1.47338	0.530103	0.134791	-0.0964326	1.75782	-0.31451	0.0102342	1.45663	0.456046	0.078551	-0.0963197	-0.355712	0.0131889	0.0346314	1.95761	-0.683718	0.67055	1.94383	1.43032	1.99276	-0.589092	0.681694	1.81845	1.69977
6.65	-0.679211	-0.0165162	0.0185456	-0.326107	0.68382	-0.677108	1.72453	-0.358547	-0.0248814	1.45435	0.524044	0.130096	-0.0964326	1.74069	-0.311298	0.00607633	1.43766	0.449994	0.0733282	-0.0963195	-0.347833	0.0124161	0.034698	1.9305	-0.688466	0.660233	1.95001	1.43229	1.97168	-0.590974	0.672603	1.82208	1.69944
6.66	-0.678179	-0.0158218	0.0184927	-0.324674	0.689931	-0.677115	1.70795	-0.355328	-0.0280891	1.43474	0.517741	0.125337	-0.0964326	1.72352	-0.308522	0.00199721	1.41827	0.443783	0.0684397	-0.0963193	-0.339573	0.011752	0.0351165	1.90127	-0.69309	0.648691	1.95626	1.43437	1.94922	-0.592832	0.66306	1.82602	1.69901
6.67	-0.677149	-0.0153792	0.0181411	-0.323191	0.696121	-0.67709	1.69094	-0.35179	-0.0316922	1.41455	0.511198	0.120545	-0.0964326	1.70624	-0.306256	-0.0020112	1.39849	0.437446	0.0639904	-0.0963191	-0.331039	0.011223	0.035902	1.86986	-0.697549	0.635822	1.96262	1.43637	1.92543	-0.594725	0.653131	1.83033	1.69856
6.68	-0.676027	-0.0152057	0.0174945	-0.321653	0.702394	-0.67703	1.67338	-0.347921	-0.035703	1.39379	0.504416	0.115757	-0.0964326	1.68875	-0.304558	-0.00598248	1.37831	0.431014	0.0600807	-0.0963189	-0.322361	0.0108433	0.0370446	1.83631	-0.701787	0.621564	1.9691	1.43815	1.90041	-0.596698	0.642899	1.83504	1.69822
6.69	-0.674714	-0.0152997	0.0165707	-0.320054	0.708749	-0.676933	1.6552	-0.34373	-0.0401124	1.37248	0.497391	0.111014	-0.0964325	1.67094	-0.303457	-0.00996918	1.35775	0.424507	0.0567875	-0.0963187	-0.313677	0.0106186	0.0385145	1.80066	-0.705739	0.605896	1.97568	1.43983	1.87428	-0.598777	0.632455	1.84013	1.69808
6.7	-0.673113	-0.0156419	0.0153983	-0.318389	0.715185	-0.676804	1.63631	-0.339244	-0.0448936	1.35062	0.490125	0.106356	-0.0964325	1.6527	-0.302952	-0.0140361	1.33682	0.417942	0.0541535	-0.0963185	-0.30512	0.0105525	0.0402635	1.76304	-0.709318	0.588843	1.9823	1.44165	1.84718	-0.60098	0.621871	1.84552	1.69821
6.71	-0.671128	-0.0161992	0.0140127	-0.316655	0.721702	-0.676648	1.61666	-0.334503	-0.0500081	1.32825	0.482624	0.101831	-0.0964325	1.63392	-0.303014	-0.0182527	1.31555	0.411328	0.0521896	-0.0963183	-0.296814	0.0106513	0.0422305	1.7236	-0.712423	0.570469	1.98888	1.44383	1.81922	-0.603318	0.61119	1.85112	1.69865
6.72	-0.668688	-0.0169293	0.0124551	-0.314848	0.728292	-0.676474	1.59623	-0.329567	-0.0554094	1.3054	0.4749	0.0975001	-0.0964325	1.61452	-0.303588	-0.0226865	1.29396	0.404674	0.0508801	-0.0963181	-0.288847	0.0109224	0.0443544	1.68254	-0.714959	0.550873	1.99532	1.44652	1.79049	-0.605781	0.600414	1.85685	1.69936
6.73	-0.665756	-0.0177803	0.0107789	-0.312968	0.734946	-0.676295	1.57502	-0.324521	-0.0610439	1.2821	0.466981	0.0934394	-0.0964325	1.59446	-0.304581	-0.0274001	1.27207	0.397987	0.0501842	-0.0963179	-0.281254	0.0113677	0.0465763	1.64004	-0.716865	0.530178	2.00155	1.44976	1.76103	-0.608327	0.589516	1.8626	1.70029
6.74	-0.662326	-0.0186862	0.00905756	-0.311012	0.741651	-0.676126	1.5531	-0.319486	-0.0668476	1.25841	0.458901	0.0897415	-0.0964325	1.57373	-0.305852	-0.0324524	1.24993	0.391272	0.0500293	-0.0963177	-0.274025	0.011977	0.0488256	1.59629	-0.718119	0.508535	2.00751	1.45344	1.73082	-0.610903	0.578471	1.86832	1.70137
6.75	-0.658403	-0.0195646	0.00738792	-0.308981	0.748393	-0.675984	1.53053	-0.31462	-0.0727452	1.23439	0.450709	0.0865025	-0.0964324	1.55229	-0.307209	-0.0378978	1.22752	0.38453	0.0503074	-0.0963175	-0.267136	0.0127237	0.051006	1.5515	-0.718731	0.486133	2.01316	1.45726	1.69982	-0.613479	0.567277	1.87397	1.70261
6.76	-0.653985	-0.0203194	0.00588419	-0.306872	0.755162	-0.675889	1.50737	-0.310103	-0.0786523	1.2101	0.44246	0.0838076	-0.0964324	1.53009	-0.308418	-0.0437803	1.20484	0.377758	0.0508773	-0.0963173	-0.260578	0.0135655	0.0529965	1.50586	-0.718736	0.463199	2.01849	1.46091	1.66795	-0.616059	0.555956	1.87958	1.70404
6.77	-0.649053	-0.0208496	0.00466293	-0.304686	0.761949	-0.675858	1.48364	-0.306115	-0.0844797	1.1856	0.434206	0.081717	-0.0964324	1.50708	-0.30923	-0.0501257	1.18186	0.370953	0.0515743	-0.0963171	-0.254371	0.014445	0.0546701	1.4596	-0.718197	0.439982	2.02346	1.46423	1.63517	-0.618669	0.544543	1.88521	1.70565
6.78	-0.643581	-0.0210606	0.00382305	-0.302421	0.768747	-0.675906	1.45936	-0.302802	-0.0901388	1.16094	0.425985	0.0802521	-0.0964324	1.48314	-0.309406	-0.056931	1.15854	0.364107	0.0522251	-0.0963169	-0.248559	0.0152941	0.0559225	1.41291	-0.717206	0.416719	2.02806	1.46727	1.60142	-0.621328	0.533061	1.89092	1.70735
